<?xml version="1.0" encoding="utf-8"?>
<!-- Generator: Adobe Illustrator 22.1.0, SVG Export Plug-In . SVG Version: 6.00 Build 0)  -->
<svg version="1.1" id="Pokeball" xmlns="http://www.w3.org/2000/svg" xmlns:xlink="http://www.w3.org/1999/xlink" x="0px" y="0px"
	 viewBox="0 0 428 337.9" style="enable-background:new 0 0 428 337.9;" xml:space="preserve">
<style type="text/css">
	.st0{fill:#CE2121;stroke:#000000;stroke-width:10.8664;stroke-miterlimit:10;}
	.st1{fill:#FFFFFF;stroke:#000000;stroke-width:10.8664;stroke-miterlimit:10;}
	.st2{fill:#FFFFFF;stroke:#000000;stroke-width:8.6931;stroke-miterlimit:10;}
	.st3{fill:#FFFFFF;stroke:#000000;stroke-width:4.3466;stroke-miterlimit:10;}
</style>
<title>pokeball</title>
<g>
	<path d="M70.2,302.1v-3.9l5.9-0.9v-43.9l-5.5-0.9v-3.9h9.5c1.2,0,2.2,0,3-0.1c0.8,0,1.7-0.1,2.6-0.2c0.9-0.1,1.8-0.1,2.9-0.2
		c1,0,2.3-0.1,3.9-0.1c3.6,0,6.5,0.3,8.9,1s4.3,1.7,5.8,3s2.5,2.9,3.1,4.8s0.9,4.1,0.9,6.5c0,3-0.5,5.6-1.6,7.9
		c-1.1,2.3-2.5,4.3-4.4,5.9s-4.1,2.8-6.6,3.6c-2.5,0.8-5.3,1.2-8.2,1.2c-0.7,0-1.4,0-2,0s-1.3,0-1.9-0.1c-0.6-0.1-1.1-0.1-1.5-0.1
		s-0.7-0.1-0.9-0.1v15.5l9.3,0.9v3.9H70.2V302.1z M84.1,277.6c0.4,0.1,0.7,0.1,1.1,0.2c0.4,0.1,0.8,0.1,1.3,0.1s1.1,0,1.7,0.1
		s1.4,0,2.3,0c1.5,0,3-0.2,4.5-0.7s2.8-1.2,3.9-2.3s2.1-2.6,2.8-4.5s1-4.2,1-7c0-2-0.3-3.7-0.8-5.2c-0.5-1.4-1.3-2.6-2.3-3.5
		c-1-0.9-2.3-1.5-3.9-2c-1.6-0.4-3.4-0.6-5.5-0.6c-0.8,0-1.6,0-2.1,0.1c-0.5,0.1-1.1,0.1-1.5,0.1c-0.4,0.1-0.9,0.1-1.2,0.2
		c-0.4,0-0.8,0.1-1.2,0.1v24.9H84.1z"/>
	<path d="M115.7,281.9c0-3.3,0.5-6.3,1.6-8.9s2.5-4.8,4.3-6.6c1.8-1.8,3.8-3.1,6.1-4.1c2.3-0.9,4.6-1.4,6.9-1.4c3.2,0,6,0.5,8.2,1.6
		s4.1,2.6,5.6,4.5s2.5,4.1,3.2,6.7c0.7,2.6,1,5.3,1,8.2c0,3.4-0.5,6.3-1.6,8.9c-1.1,2.6-2.5,4.8-4.3,6.6s-3.8,3.1-6.1,4
		s-4.6,1.4-7,1.4c-3.2,0-5.9-0.5-8.2-1.6c-2.3-1.1-4.1-2.6-5.6-4.5c-1.5-1.9-2.5-4.1-3.2-6.7S115.7,284.8,115.7,281.9z M134.2,298.6
		c3.4,0,5.8-1.3,7.4-4c1.6-2.7,2.4-6.6,2.4-11.9c0-2.4-0.2-4.7-0.5-6.8s-0.9-3.9-1.7-5.5s-1.8-2.8-3-3.7c-1.2-0.9-2.7-1.4-4.5-1.4
		c-3.4,0-5.8,1.3-7.4,4c-1.6,2.7-2.4,6.6-2.4,11.9c0,2.4,0.2,4.7,0.5,6.8s0.9,3.9,1.7,5.5s1.8,2.8,3,3.7S132.4,298.6,134.2,298.6z"
		/>
	<path d="M158.3,302.1v-3.9l4.8-0.6v-49l-5.5-0.6v-3.3l11.5-1.6h0.1l1.8,1.2v34.6l-0.1,4.4l16-16.4l-5.7-1.2v-3.6h18v3.6l-5.7,1.3
		l-10.1,10l13.5,20.7l4.3,0.6v3.9h-17.6v-3.8l4.2-0.7l-9.7-16.1l-7.2,7.1l0.2,3.4v5.7l5.1,0.6v3.8L158.3,302.1L158.3,302.1z"/>
	<path d="M222.2,302.9c-3,0-5.6-0.5-7.8-1.5s-4.1-2.5-5.6-4.3c-1.5-1.8-2.6-4.1-3.4-6.6s-1.1-5.4-1.1-8.5s0.5-6,1.4-8.5
		s2.2-4.8,3.9-6.6c1.7-1.8,3.7-3.3,6-4.3s4.8-1.5,7.5-1.5c4.4,0,7.9,1.2,10.3,3.6c2.4,2.4,3.8,6,4,10.7c0,1.5,0,2.9,0,4
		s-0.2,2.1-0.4,3h-24.3v0.2c0.1,2.7,0.5,5,1.2,6.9s1.6,3.5,2.7,4.7c1.1,1.2,2.3,2.1,3.7,2.6s2.9,0.8,4.4,0.8c1,0,2-0.1,3.1-0.3
		s2-0.4,3-0.7c1-0.3,1.8-0.7,2.6-1.1s1.4-0.8,2-1.2l1.5,3.4c-0.7,0.7-1.5,1.3-2.6,2c-1.1,0.7-2.2,1.2-3.5,1.7s-2.6,0.9-4.1,1.2
		C225.2,302.9,223.6,302.9,222.2,302.9z M221.3,265.3c-1.2,0-2.3,0.2-3.3,0.6s-1.9,1.1-2.7,2.1s-1.4,2.3-1.9,3.9s-0.8,3.7-0.9,6.2
		h16.3c0-0.5,0.1-1,0.1-1.5s0-1,0-1.4c0-1.3-0.1-2.6-0.4-3.8c-0.3-1.2-0.7-2.2-1.3-3.2s-1.4-1.6-2.4-2.2
		C223.9,265.5,222.7,265.3,221.3,265.3z"/>
	<path d="M258.9,302.9c-2.1,0-4.1-0.4-6-1.2c-1.9-0.8-3.6-2-5-3.7c-1.4-1.7-2.6-3.7-3.4-6.2s-1.3-5.4-1.3-8.8c0-3.1,0.5-6,1.4-8.7
		c0.9-2.7,2.3-5,4.1-7c1.8-2,3.9-3.5,6.5-4.7c2.6-1.2,5.4-1.7,8.6-1.7c1.1,0,2.2,0.1,3.3,0.2c1.1,0.1,2.1,0.3,3.1,0.5v-13l-6.9-0.7
		v-3.3l12.8-1.5h0.2l1.8,1.2v53.6h4.2v3.7c-1,0.3-2.1,0.5-3.5,0.8c-1.4,0.3-2.7,0.5-4.2,0.5c-0.6,0-1.2,0-1.7-0.1
		c-0.5-0.1-0.9-0.3-1.2-0.5c-0.3-0.2-0.6-0.7-0.7-1.1c-0.1-0.4-0.2-1.1-0.2-1.9v-1.5c-0.6,0.6-1.3,1.3-2.1,1.9
		c-0.8,0.6-1.7,1.2-2.7,1.7s-2.1,0.9-3.2,1.2C261.7,302.9,260.3,302.9,258.9,302.9z M262.2,297.5c0.9,0,1.8-0.1,2.6-0.4
		c0.8-0.3,1.6-0.5,2.2-0.9c0.6-0.4,1.3-0.7,1.8-1.2s1-0.8,1.3-1.2v-26.5c-0.2-0.3-0.5-0.6-0.9-0.8c-0.4-0.3-1-0.5-1.6-0.7
		c-0.6-0.2-1.3-0.4-2.1-0.5c-0.8-0.1-1.5-0.2-2.4-0.2c-1.6,0-3,0.3-4.4,0.9s-2.6,1.6-3.6,2.9c-1,1.3-1.9,3-2.5,5.2s-1,4.7-1,7.8
		c0,2.7,0.2,5.1,0.7,7.1s1.3,3.6,2.2,4.9c0.9,1.3,2.1,2.2,3.4,2.8S260.7,297.5,262.2,297.5z"/>
	<path d="M305.8,302.9c-3,0-5.6-0.5-7.8-1.5s-4.1-2.5-5.6-4.3c-1.5-1.8-2.6-4.1-3.4-6.6s-1.1-5.4-1.1-8.5s0.5-6,1.4-8.5
		s2.2-4.8,3.9-6.6c1.7-1.8,3.7-3.3,6-4.3s4.8-1.5,7.5-1.5c4.4,0,7.9,1.2,10.3,3.6c2.4,2.4,3.8,6,4,10.7c0,1.5,0,2.9,0,4
		s-0.2,2.1-0.4,3h-24.3v0.2c0.1,2.7,0.5,5,1.2,6.9s1.6,3.5,2.7,4.7c1.1,1.2,2.3,2.1,3.7,2.6s2.9,0.8,4.4,0.8c1,0,2-0.1,3.1-0.3
		s2-0.4,3-0.7c1-0.3,1.8-0.7,2.6-1.1s1.4-0.8,2-1.2l1.5,3.4c-0.7,0.7-1.5,1.3-2.6,2c-1.1,0.7-2.2,1.2-3.5,1.7s-2.6,0.9-4.1,1.2
		C308.8,302.9,307.2,302.9,305.8,302.9z M304.9,265.3c-1.2,0-2.3,0.2-3.3,0.6s-1.9,1.1-2.7,2.1s-1.4,2.3-1.9,3.9s-0.8,3.7-0.9,6.2
		h16.3c0-0.5,0.1-1,0.1-1.5s0-1,0-1.4c0-1.3-0.1-2.6-0.4-3.8c-0.3-1.2-0.7-2.2-1.3-3.2s-1.4-1.6-2.4-2.2
		C307.5,265.5,306.3,265.3,304.9,265.3z"/>
	<path d="M324.4,302.1v-3.7l4.8-0.7l12.2-15.7l-11.7-15.1l-4.2-1v-3.8h18.4v3.8l-5,1l6.3,8.5l2.1,3.2l1.8-3.1l6.3-8.5l-5.2-1v-3.8
		H366v3.8l-4.5,1l-11.4,14.4l12.3,16.5l4.1,0.7v3.7h-18.4v-3.9l4.6-0.7l-6.4-9.2l-2.2-3.3l-1.7,3.2l-6.4,9.2l5.7,0.8v3.7H324.4z"/>
</g>
<g>
	<path class="st0" d="M212.5,35c-50.2,0-90.8,40.7-90.8,90.8h181.7C303.4,75.7,262.7,35,212.5,35z"/>
	<path class="st1" d="M121.7,125.8c0,50.2,40.7,90.8,90.8,90.8s90.8-40.7,90.8-90.8H121.7z"/>
	<circle class="st2" cx="212.5" cy="125.8" r="28.9"/>
	<circle class="st3" cx="212.3" cy="125.8" r="18.7"/>
</g>
</svg>
