<?xml version="1.0" encoding="utf-8"?>
<!-- Generator: Adobe Illustrator 22.1.0, SVG Export Plug-In . SVG Version: 6.00 Build 0)  -->
<svg version="1.1" id="Pokeball" xmlns="http://www.w3.org/2000/svg" xmlns:xlink="http://www.w3.org/1999/xlink" x="0px" y="0px"
	 viewBox="0 0 428 111.2" style="enable-background:new 0 0 428 111.2;" xml:space="preserve">
<style type="text/css">
	.st0{fill:#CE2121;stroke:#000000;stroke-width:5;stroke-miterlimit:10;}
	.st1{fill:#FFFFFF;stroke:#000000;stroke-width:5;stroke-miterlimit:10;}
	.st2{fill:#FFFFFF;stroke:#000000;stroke-width:4;stroke-miterlimit:10;}
	.st3{fill:#FFFFFF;stroke:#000000;stroke-width:2;stroke-miterlimit:10;}
</style>
<title>pokeball</title>
<g>
	<path d="M119.5,83.7v-3.9l5.9-0.9V35l-5.5-0.9v-3.9h9.5c1.2,0,2.2,0,3-0.1c0.8,0,1.7-0.1,2.6-0.2s1.8-0.1,2.9-0.2
		c1,0,2.3-0.1,3.9-0.1c3.6,0,6.5,0.3,8.9,1s4.3,1.7,5.8,3s2.5,2.9,3.1,4.8s0.9,4.1,0.9,6.5c0,3-0.5,5.6-1.6,7.9s-2.5,4.3-4.4,5.9
		s-4.1,2.8-6.6,3.6s-5.3,1.2-8.2,1.2c-0.7,0-1.4,0-2,0s-1.3,0-1.9-0.1s-1.1-0.1-1.5-0.1s-0.7-0.1-0.9-0.1v15.5l9.3,0.9v3.9h-23.2
		V83.7z M133.4,59.2c0.4,0.1,0.7,0.1,1.1,0.2s0.8,0.1,1.3,0.1s1.1,0,1.7,0.1s1.4,0,2.3,0c1.5,0,3-0.2,4.5-0.7s2.8-1.2,3.9-2.3
		s2.1-2.6,2.8-4.5s1-4.2,1-7c0-2-0.3-3.7-0.8-5.2c-0.5-1.4-1.3-2.6-2.3-3.5s-2.3-1.5-3.9-2c-1.6-0.4-3.4-0.6-5.5-0.6
		c-0.8,0-1.6,0-2.1,0.1s-1.1,0.1-1.5,0.1c-0.4,0.1-0.9,0.1-1.2,0.2c-0.4,0-0.8,0.1-1.2,0.1v24.9H133.4z"/>
	<path d="M165,63.5c0-3.3,0.5-6.3,1.6-8.9c1.1-2.6,2.5-4.8,4.3-6.6s3.8-3.1,6.1-4.1c2.3-0.9,4.6-1.4,6.9-1.4c3.2,0,6,0.5,8.2,1.6
		s4.1,2.6,5.6,4.5s2.5,4.1,3.2,6.7c0.7,2.6,1,5.3,1,8.2c0,3.4-0.5,6.3-1.6,8.9s-2.5,4.8-4.3,6.6s-3.8,3.1-6.1,4s-4.6,1.4-7,1.4
		c-3.2,0-5.9-0.5-8.2-1.6s-4.1-2.6-5.6-4.5s-2.5-4.1-3.2-6.7S165,66.4,165,63.5z M183.5,80.2c3.4,0,5.8-1.3,7.4-4s2.4-6.6,2.4-11.9
		c0-2.4-0.2-4.7-0.5-6.8s-0.9-3.9-1.7-5.5s-1.8-2.8-3-3.7s-2.7-1.4-4.5-1.4c-3.4,0-5.8,1.3-7.4,4s-2.4,6.6-2.4,11.9
		c0,2.4,0.2,4.7,0.5,6.8s0.9,3.9,1.7,5.5s1.8,2.8,3,3.7S181.7,80.2,183.5,80.2z"/>
	<path d="M207.6,83.7v-3.9l4.8-0.6v-49l-5.5-0.6v-3.3l11.5-1.6h0.1l1.8,1.2v34.6l-0.1,4.4l16-16.4l-5.7-1.2v-3.6h18v3.6l-5.7,1.3
		l-10.1,10l13.5,20.7l4.3,0.6v3.9h-17.6V80l4.2-0.7l-9.7-16.1l-7.2,7.1l0.2,3.4v5.7l5.1,0.6v3.8L207.6,83.7L207.6,83.7z"/>
	<path d="M271.5,84.5c-3,0-5.6-0.5-7.8-1.5s-4.1-2.5-5.6-4.3s-2.6-4.1-3.4-6.6s-1.1-5.4-1.1-8.5s0.5-6,1.4-8.5s2.2-4.8,3.9-6.6
		c1.7-1.8,3.7-3.3,6-4.3s4.8-1.5,7.5-1.5c4.4,0,7.9,1.2,10.3,3.6c2.4,2.4,3.8,6,4,10.7c0,1.5,0,2.9,0,4s-0.2,2.1-0.4,3H262v0.2
		c0.1,2.7,0.5,5,1.2,6.9s1.6,3.5,2.7,4.7s2.3,2.1,3.7,2.6s2.9,0.8,4.4,0.8c1,0,2-0.1,3.1-0.3s2-0.4,3-0.7s1.8-0.7,2.6-1.1
		s1.4-0.8,2-1.2l1.5,3.4c-0.7,0.7-1.5,1.3-2.6,2s-2.2,1.2-3.5,1.7s-2.6,0.9-4.1,1.2S272.9,84.5,271.5,84.5z M270.6,46.9
		c-1.2,0-2.3,0.2-3.3,0.6c-1,0.4-1.9,1.1-2.7,2.1s-1.4,2.3-1.9,3.9c-0.5,1.6-0.8,3.7-0.9,6.2h16.3c0-0.5,0.1-1,0.1-1.5s0-1,0-1.4
		c0-1.3-0.1-2.6-0.4-3.8s-0.7-2.2-1.3-3.2s-1.4-1.6-2.4-2.2C273.2,47.1,272,46.9,270.6,46.9z"/>
	<path d="M308.2,84.5c-2.1,0-4.1-0.4-6-1.2s-3.6-2-5-3.7s-2.6-3.7-3.4-6.2s-1.3-5.4-1.3-8.8c0-3.1,0.5-6,1.4-8.7s2.3-5,4.1-7
		c1.8-2,3.9-3.5,6.5-4.7s5.4-1.7,8.6-1.7c1.1,0,2.2,0.1,3.3,0.2c1.1,0.1,2.1,0.3,3.1,0.5v-13l-6.9-0.7v-3.3l12.8-1.5h0.2l1.8,1.2
		v53.6h4.2v3.7c-1,0.3-2.1,0.5-3.5,0.8s-2.7,0.5-4.2,0.5c-0.6,0-1.2,0-1.7-0.1s-0.9-0.3-1.2-0.5s-0.6-0.7-0.7-1.1s-0.2-1.1-0.2-1.9
		v-1.5c-0.6,0.6-1.3,1.3-2.1,1.9s-1.7,1.2-2.7,1.7s-2.1,0.9-3.2,1.2S309.6,84.5,308.2,84.5z M311.5,79.1c0.9,0,1.8-0.1,2.6-0.4
		s1.6-0.5,2.2-0.9s1.3-0.7,1.8-1.2s1-0.8,1.3-1.2V48.9c-0.2-0.3-0.5-0.6-0.9-0.8c-0.4-0.3-1-0.5-1.6-0.7s-1.3-0.4-2.1-0.5
		c-0.8-0.1-1.5-0.2-2.4-0.2c-1.6,0-3,0.3-4.4,0.9s-2.6,1.6-3.6,2.9c-1,1.3-1.9,3-2.5,5.2s-1,4.7-1,7.8c0,2.7,0.2,5.1,0.7,7.1
		s1.3,3.6,2.2,4.9s2.1,2.2,3.4,2.8S310,79.1,311.5,79.1z"/>
	<path d="M355.1,84.5c-3,0-5.6-0.5-7.8-1.5s-4.1-2.5-5.6-4.3s-2.6-4.1-3.4-6.6s-1.1-5.4-1.1-8.5s0.5-6,1.4-8.5s2.2-4.8,3.9-6.6
		c1.7-1.8,3.7-3.3,6-4.3s4.8-1.5,7.5-1.5c4.4,0,7.9,1.2,10.3,3.6c2.4,2.4,3.8,6,4,10.7c0,1.5,0,2.9,0,4s-0.2,2.1-0.4,3h-24.3v0.2
		c0.1,2.7,0.5,5,1.2,6.9s1.6,3.5,2.7,4.7s2.3,2.1,3.7,2.6s2.9,0.8,4.4,0.8c1,0,2-0.1,3.1-0.3s2-0.4,3-0.7s1.8-0.7,2.6-1.1
		s1.4-0.8,2-1.2l1.5,3.4c-0.7,0.7-1.5,1.3-2.6,2s-2.2,1.2-3.5,1.7s-2.6,0.9-4.1,1.2S356.5,84.5,355.1,84.5z M354.2,46.9
		c-1.2,0-2.3,0.2-3.3,0.6c-1,0.4-1.9,1.1-2.7,2.1s-1.4,2.3-1.9,3.9c-0.5,1.6-0.8,3.7-0.9,6.2h16.3c0-0.5,0.1-1,0.1-1.5s0-1,0-1.4
		c0-1.3-0.1-2.6-0.4-3.8s-0.7-2.2-1.3-3.2s-1.4-1.6-2.4-2.2C356.8,47.1,355.6,46.9,354.2,46.9z"/>
	<path d="M373.7,83.7V80l4.8-0.7l12.2-15.7L379,48.5l-4.2-1v-3.8h18.4v3.8l-5,1l6.3,8.5l2.1,3.2l1.8-3.1l6.3-8.5l-5.2-1v-3.8h15.8
		v3.8l-4.5,1L399.4,63l12.3,16.5l4.1,0.7v3.7h-18.4V80l4.6-0.7l-6.4-9.2l-2.2-3.3l-1.7,3.2l-6.4,9.2L391,80v3.7H373.7z"/>
</g>
<path class="st0" d="M59.5,14.3c-23.1,0-41.8,18.7-41.8,41.8h83.6C101.3,33,82.6,14.3,59.5,14.3z"/>
<path class="st1" d="M17.7,56.1c0,23.1,18.7,41.8,41.8,41.8s41.8-18.7,41.8-41.8H17.7z"/>
<circle class="st2" cx="59.5" cy="56.1" r="13.3"/>
<circle class="st3" cx="59.4" cy="56.1" r="8.6"/>
</svg>
